<svg width="27" height="25" viewBox="0 0 27 25" fill="none" xmlns="http://www.w3.org/2000/svg">
<path d="M13.3347 2.03864C16.4667 -0.77336 21.3067 -0.680027 24.324 2.34264C27.34 5.36664 27.444 10.1826 24.6387 13.324L13.332 24.6466L2.02801 13.324C-0.777325 10.1826 -0.671992 5.35864 2.34267 2.34264C5.36267 -0.676027 10.1933 -0.77736 13.3347 2.03864ZM22.436 4.22664C20.436 2.22397 17.2093 2.14264 15.116 4.02264L13.336 5.61997L11.5547 4.02397C9.45467 2.14131 6.23467 2.22397 4.22934 4.22931C2.24267 6.21597 2.14267 9.39597 3.97334 11.4973L13.3333 20.872L22.6933 11.4986C24.5253 9.39597 24.4253 6.21997 22.436 4.22664Z" fill="#1C1C27"/>
</svg>
